<svg width="156" height="106" viewBox="0 0 156 106" fill="none" xmlns="http://www.w3.org/2000/svg">
<path d="M65.2807 46.6006C85.6316 29.8837 100.368 39.6352 105.193 46.6006L117.474 56.8879L96.3691 62.353C109.31 73.9263 101.761 91.7415 96.3691 99.2025H138.937C146.701 99.2025 153 94.5857 153 88.8951V27.0506C153 21.3601 146.701 16.7432 138.937 16.7432H113.156L109.523 9.67834C107.473 5.66275 102.229 3 96.3691 3H59.6016C53.7422 3 48.498 5.66275 46.4473 9.67834L42.8437 16.7432H17.0625C9.29883 16.7432 3 21.3601 3 27.0506V88.8951C3 94.5857 9.29883 99.2025 17.0625 99.2025H46.4473" stroke="white" stroke-width="5"/>
<path d="M59.2661 102.973C53.1063 103.113 48.317 102.707 44.6854 101.876C28.1978 98.1032 35.1314 85.5704 46.4354 75.6221C50.8101 71.4743 58.2978 65.3561 66.3084 63.2298C67.6749 62.8671 69.0321 62.6245 70.3524 62.5337C71.1447 62.4791 71.9236 62.4792 72.6833 62.5408C72.991 62.5657 73.2903 62.5962 73.5813 62.6318C77.0327 63.0545 79.326 64.2128 80.8089 65.6876C82.7515 67.6196 83.3033 70.0949 83.246 72.1715C83.2375 72.4807 83.2155 72.7812 83.1825 73.0696C81.8701 78.4936 77.4956 82.9603 63.4966 90.9367L58.6845 93.4892C54.7473 95.4035 52.1225 96.6797 46.4613 98.9929H18" stroke="white" stroke-width="5"/>
<path fill-rule="evenodd" clip-rule="evenodd" d="M87.9742 49.89L87.9336 45.2412L88.1875 45.2396L88.2281 49.8884L87.9742 49.89Z" fill="white"/>
<path fill-rule="evenodd" clip-rule="evenodd" d="M85.5369 46.4089L90.2305 44.083L90.3526 44.2586L85.6591 46.5844L85.5369 46.4089Z" fill="white"/>
<path fill-rule="evenodd" clip-rule="evenodd" d="M92.677 45.4893L87.916 43.209L88.0351 43.0319L92.7961 45.3123L92.677 45.4893Z" fill="white"/>
<path fill-rule="evenodd" clip-rule="evenodd" d="M92.4687 50.0359L87.9824 47.8872L88.1015 47.7102L92.5878 49.8589L92.4687 50.0359Z" fill="white"/>
<path fill-rule="evenodd" clip-rule="evenodd" d="M92.5452 47.9511L92.502 43.0044L92.7432 43.0029L92.7864 47.9496L92.5452 47.9511Z" fill="white"/>
<path fill-rule="evenodd" clip-rule="evenodd" d="M90.4013 48.9015L95.4199 46.4146L95.5421 46.5901L90.5235 49.077L90.4013 48.9015Z" fill="white"/>
<path fill-rule="evenodd" clip-rule="evenodd" d="M91.1158 50.2657C93.6159 49.9708 95.3593 48.0213 95.0098 45.9116C94.6603 43.8018 92.3502 42.3305 89.8501 42.6255C87.35 42.9204 85.6066 44.8699 85.9562 46.9797C86.3057 49.0894 88.6157 50.5607 91.1158 50.2657ZM91.1862 50.6902C93.964 50.3625 95.9011 48.1964 95.5128 45.8522C95.1244 43.508 92.5577 41.8733 89.7798 42.201C87.0019 42.5288 85.0648 44.6948 85.4532 47.039C85.8415 49.3832 88.4083 51.0179 91.1862 50.6902Z" fill="white"/>
</svg>
