<svg width="104" height="126" viewBox="0 0 104 126" fill="none" xmlns="http://www.w3.org/2000/svg">
<path d="M36.498 44.8379H33.8789V53H32.877V44.8379H30.2637V43.9238H36.498V44.8379ZM37.3418 48.5703C37.3418 47.1133 37.7363 45.9492 38.5254 45.0781C39.3184 44.207 40.3887 43.7715 41.7363 43.7715C42.9863 43.7715 43.9922 44.1973 44.7539 45.0488C45.5195 45.9004 45.9023 46.998 45.9023 48.3418C45.9023 49.791 45.5156 50.9551 44.7422 51.834C43.9727 52.7129 42.9199 53.1523 41.584 53.1523C40.3066 53.1523 39.2793 52.7246 38.502 51.8691C37.7285 51.0137 37.3418 49.9141 37.3418 48.5703ZM38.3906 48.4766C38.3906 49.5664 38.6797 50.4688 39.2578 51.1836C39.8359 51.8945 40.6094 52.25 41.5781 52.25C42.6133 52.25 43.418 51.9141 43.9922 51.2422C44.5703 50.5664 44.8594 49.6504 44.8594 48.4941C44.8594 47.2988 44.5801 46.3652 44.0215 45.6934C43.4668 45.0215 42.6797 44.6855 41.6602 44.6855C40.668 44.6855 39.875 45.0449 39.2812 45.7637C38.6875 46.4785 38.3906 47.3828 38.3906 48.4766ZM56.0098 44.8379H53.3906V53H52.3887V44.8379H49.7754V43.9238H56.0098V44.8379ZM56.8535 48.5703C56.8535 47.1133 57.248 45.9492 58.0371 45.0781C58.8301 44.207 59.9004 43.7715 61.248 43.7715C62.498 43.7715 63.5039 44.1973 64.2656 45.0488C65.0312 45.9004 65.4141 46.998 65.4141 48.3418C65.4141 49.791 65.0273 50.9551 64.2539 51.834C63.4844 52.7129 62.4316 53.1523 61.0957 53.1523C59.8184 53.1523 58.791 52.7246 58.0137 51.8691C57.2402 51.0137 56.8535 49.9141 56.8535 48.5703ZM57.9023 48.4766C57.9023 49.5664 58.1914 50.4688 58.7695 51.1836C59.3477 51.8945 60.1211 52.25 61.0898 52.25C62.125 52.25 62.9297 51.9141 63.5039 51.2422C64.082 50.5664 64.3711 49.6504 64.3711 48.4941C64.3711 47.2988 64.0918 46.3652 63.5332 45.6934C62.9785 45.0215 62.1914 44.6855 61.1719 44.6855C60.1797 44.6855 59.3867 45.0449 58.793 45.7637C58.1992 46.4785 57.9023 47.3828 57.9023 48.4766ZM68.2207 49.5547V53H67.2246V43.9238H69.6738C70.623 43.9238 71.3652 44.1602 71.9004 44.6328C72.4355 45.1055 72.7031 45.7695 72.7031 46.625C72.7031 47.5156 72.3887 48.2344 71.7598 48.7812C71.1309 49.3281 70.3555 49.5859 69.4336 49.5547H68.2207ZM68.2207 44.8438V48.623H69.3574C70.1035 48.623 70.6719 48.4551 71.0625 48.1191C71.457 47.7793 71.6543 47.2969 71.6543 46.6719C71.6543 45.4531 70.9355 44.8438 69.498 44.8438H68.2207Z" fill="white"/>
<rect x="20.5" y="20.5" width="63" height="55" stroke="white"/>
<rect x="0.5" y="0.5" width="103" height="125" stroke="white"/>
</svg>
